# MagicaVoxel @ Ephtracy

# group
o 

# material
mtllib soldier-rifle.mtl
usemtl palette

# normals
vn -1 0 0
vn 1 0 0
vn 0 0 1
vn 0 0 -1
vn 0 -1 0
vn 0 1 0

# texcoords
vt 0.341797 0.5
vt 0.990234 0.5
vt 0.994141 0.5

# verts
v 2.1 8.2 -2.4
v 2.1 8.2 -2.5
v 2.1 8.3 -2.3
v 2.1 8.3 -2.4
v 2.1 8.3 -2.5
v 2.1 8.3 -2.6
v 2.1 8.4 -2.3
v 2.1 8.4 -2.4
v 2.1 8.4 -2.5
v 2.1 8.4 -2.6
v 2.1 8.5 -2.4
v 2.1 8.5 -2.5
v 2.2 8.3 -2.4
v 2.2 8.3 -2.5
v 2.2 8.4 -2.4
v 2.2 8.4 -2.5
v 2.5 8.3 -2.3
v 2.5 8.3 -2.4
v 2.5 8.4 -2.3
v 2.5 8.4 -2.4
v 3 8.3 -2.3
v 3 8.3 -2.4
v 3 8.3 -2.5
v 3 8.3 -2.6
v 3 8.4 -2.3
v 3 8.4 -2.4
v 3 8.4 -2.5
v 3 8.4 -2.6
v 3 8.5 -2.4
v 3 8.5 -2.5
v 3.5 8.3 -2.8
v 3.5 8.3 -3
v 3.5 8.4 -2.8
v 3.5 8.4 -3
v 3.6 8.3 -2.7
v 3.6 8.3 -2.8
v 3.6 8.4 -2.7
v 3.6 8.4 -2.8
v 3.7 8.2 -2.4
v 3.7 8.2 -2.6
v 3.7 8.3 -2.4
v 3.7 8.3 -2.5
v 3.7 8.3 -2.6
v 3.7 8.3 -2.7
v 3.7 8.4 -2.4
v 3.7 8.4 -2.5
v 3.7 8.4 -2.6
v 3.7 8.4 -2.7
v 3.7 8.5 -2.4
v 3.7 8.5 -2.6
v 3.8 8.2 -2.3
v 3.8 8.2 -2.4
v 3.8 8.3 -2.3
v 3.8 8.3 -2.4
v 3.8 8.4 -2.3
v 3.8 8.4 -2.4
v 3.8 8.5 -2.3
v 3.8 8.5 -2.4
v 3.9 8.3 -2.2
v 3.9 8.3 -2.3
v 3.9 8.4 -2.2
v 3.9 8.4 -2.3
v 4 8.3 -3
v 4 8.3 -3.1
v 4 8.4 -3
v 4 8.4 -3.1
v 4.1 8.3 -2.6
v 4.1 8.3 -3
v 4.1 8.4 -2.6
v 4.1 8.4 -3
v 4.5 8.2 -2.3
v 4.5 8.2 -2.4
v 4.5 8.3 -2.4
v 4.5 8.4 -2.4
v 4.5 8.5 -2.3
v 4.5 8.5 -2.4
v 4.8 8.3 -2.2
v 4.8 8.3 -2.3
v 4.8 8.3 -2.5
v 4.8 8.3 -2.6
v 4.8 8.4 -2.2
v 4.8 8.4 -2.3
v 4.8 8.4 -2.5
v 4.8 8.4 -2.6
v 2.3 8.2 -2.4
v 2.3 8.2 -2.5
v 2.3 8.3 -2.3
v 2.3 8.3 -2.4
v 2.3 8.3 -2.5
v 2.3 8.3 -2.6
v 2.3 8.4 -2.3
v 2.3 8.4 -2.4
v 2.3 8.4 -2.5
v 2.3 8.4 -2.6
v 2.3 8.5 -2.4
v 2.3 8.5 -2.5
v 2.6 8.3 -2.3
v 2.6 8.3 -2.4
v 2.6 8.4 -2.3
v 2.6 8.4 -2.4
v 3.4 8.4 -2.4
v 3.4 8.4 -2.5
v 3.4 8.5 -2.4
v 3.4 8.5 -2.5
v 3.6 8.3 -2.5
v 3.6 8.3 -2.6
v 3.6 8.4 -2.5
v 3.6 8.4 -2.6
v 3.7 8.3 -2.9
v 3.7 8.3 -3
v 3.7 8.4 -2.9
v 3.7 8.4 -3
v 3.8 8.3 -2.7
v 3.8 8.3 -2.9
v 3.8 8.4 -2.7
v 3.8 8.4 -2.9
v 3.9 8.3 -2.6
v 3.9 8.3 -2.7
v 3.9 8.4 -2.6
v 3.9 8.4 -2.7
v 4.2 8.3 -2.7
v 4.2 8.3 -3
v 4.2 8.4 -2.7
v 4.2 8.4 -3
v 4.3 8.2 -2.3
v 4.3 8.2 -2.4
v 4.3 8.3 -2.2
v 4.3 8.3 -2.3
v 4.3 8.3 -2.4
v 4.3 8.3 -2.6
v 4.3 8.3 -2.7
v 4.3 8.3 -3
v 4.3 8.3 -3.1
v 4.3 8.4 -2.2
v 4.3 8.4 -2.3
v 4.3 8.4 -2.4
v 4.3 8.4 -2.6
v 4.3 8.4 -2.7
v 4.3 8.4 -3
v 4.3 8.4 -3.1
v 4.3 8.5 -2.3
v 4.3 8.5 -2.4
v 4.4 8.2 -2.4
v 4.4 8.2 -2.6
v 4.4 8.3 -2.3
v 4.4 8.3 -2.4
v 4.4 8.3 -2.5
v 4.4 8.4 -2.3
v 4.4 8.4 -2.4
v 4.4 8.4 -2.5
v 4.4 8.5 -2.4
v 4.4 8.5 -2.6
v 4.8 8.2 -2.3
v 4.8 8.2 -2.4
v 4.8 8.3 -2.3
v 4.8 8.3 -2.4
v 4.8 8.4 -2.3
v 4.8 8.4 -2.4
v 4.8 8.5 -2.3
v 4.8 8.5 -2.4
v 5 8.3 -2.2
v 5 8.3 -2.6
v 5 8.4 -2.2
v 5 8.4 -2.6
v 3.9 8.3 -2.2
v 3.9 8.4 -2.2
v 4.3 8.3 -2.2
v 4.3 8.4 -2.2
v 4.8 8.3 -2.2
v 4.8 8.4 -2.2
v 4.9 8.3 -2.2
v 4.9 8.4 -2.2
v 5 8.3 -2.2
v 5 8.4 -2.2
v 2.1 8.3 -2.3
v 2.1 8.4 -2.3
v 2.3 8.3 -2.3
v 2.3 8.4 -2.3
v 2.5 8.3 -2.3
v 2.5 8.4 -2.3
v 2.6 8.3 -2.3
v 2.6 8.4 -2.3
v 3 8.3 -2.3
v 3 8.4 -2.3
v 3.6 8.3 -2.3
v 3.6 8.4 -2.3
v 3.8 8.2 -2.3
v 3.8 8.3 -2.3
v 3.8 8.4 -2.3
v 3.8 8.5 -2.3
v 3.9 8.3 -2.3
v 3.9 8.4 -2.3
v 4.3 8.2 -2.3
v 4.3 8.3 -2.3
v 4.3 8.4 -2.3
v 4.3 8.5 -2.3
v 4.4 8.3 -2.3
v 4.4 8.4 -2.3
v 4.5 8.2 -2.3
v 4.5 8.5 -2.3
v 4.8 8.2 -2.3
v 4.8 8.3 -2.3
v 4.8 8.4 -2.3
v 4.8 8.5 -2.3
v 2.1 8.2 -2.4
v 2.1 8.3 -2.4
v 2.1 8.4 -2.4
v 2.1 8.5 -2.4
v 2.3 8.2 -2.4
v 2.3 8.3 -2.4
v 2.3 8.4 -2.4
v 2.3 8.5 -2.4
v 2.5 8.3 -2.4
v 2.5 8.4 -2.4
v 2.6 8.3 -2.4
v 2.6 8.4 -2.4
v 3 8.3 -2.4
v 3 8.4 -2.4
v 3 8.5 -2.4
v 3.4 8.4 -2.4
v 3.4 8.5 -2.4
v 3.7 8.2 -2.4
v 3.7 8.3 -2.4
v 3.7 8.4 -2.4
v 3.7 8.5 -2.4
v 3.8 8.2 -2.4
v 3.8 8.3 -2.4
v 3.8 8.4 -2.4
v 3.8 8.5 -2.4
v 4.3 8.2 -2.4
v 4.3 8.3 -2.4
v 4.3 8.4 -2.4
v 4.3 8.5 -2.4
v 4.4 8.2 -2.4
v 4.4 8.3 -2.4
v 4.4 8.4 -2.4
v 4.4 8.5 -2.4
v 4.5 8.3 -2.4
v 4.5 8.4 -2.4
v 2.1 8.3 -2.5
v 2.1 8.4 -2.5
v 2.2 8.3 -2.5
v 2.2 8.4 -2.5
v 3.6 8.3 -2.7
v 3.6 8.4 -2.7
v 3.7 8.3 -2.7
v 3.7 8.4 -2.7
v 3.5 8.3 -2.8
v 3.5 8.4 -2.8
v 3.6 8.3 -2.8
v 3.6 8.4 -2.8
v 4 8.3 -3
v 4 8.4 -3
v 4.1 8.3 -3
v 4.1 8.4 -3
v 4.2 8.3 -3
v 4.2 8.4 -3
v 4.3 8.3 -3
v 4.3 8.4 -3
v 2.1 8.3 -2.4
v 2.1 8.4 -2.4
v 2.2 8.3 -2.4
v 2.2 8.4 -2.4
v 4.5 8.2 -2.4
v 4.5 8.3 -2.4
v 4.5 8.4 -2.4
v 4.5 8.5 -2.4
v 4.6 8.3 -2.4
v 4.6 8.4 -2.4
v 4.8 8.2 -2.4
v 4.8 8.3 -2.4
v 4.8 8.4 -2.4
v 4.8 8.5 -2.4
v 2.1 8.2 -2.5
v 2.1 8.3 -2.5
v 2.1 8.4 -2.5
v 2.1 8.5 -2.5
v 2.3 8.2 -2.5
v 2.3 8.3 -2.5
v 2.3 8.4 -2.5
v 2.3 8.5 -2.5
v 3 8.3 -2.5
v 3 8.4 -2.5
v 3 8.5 -2.5
v 3.4 8.4 -2.5
v 3.4 8.5 -2.5
v 3.6 8.3 -2.5
v 3.6 8.4 -2.5
v 3.7 8.3 -2.5
v 3.7 8.4 -2.5
v 4.4 8.3 -2.5
v 4.4 8.4 -2.5
v 4.6 8.3 -2.5
v 4.6 8.4 -2.5
v 4.8 8.3 -2.5
v 4.8 8.4 -2.5
v 2.1 8.3 -2.6
v 2.1 8.4 -2.6
v 2.3 8.3 -2.6
v 2.3 8.4 -2.6
v 3 8.3 -2.6
v 3 8.4 -2.6
v 3.6 8.3 -2.6
v 3.6 8.4 -2.6
v 3.7 8.2 -2.6
v 3.7 8.3 -2.6
v 3.7 8.4 -2.6
v 3.7 8.5 -2.6
v 3.9 8.3 -2.6
v 3.9 8.4 -2.6
v 4.1 8.3 -2.6
v 4.1 8.4 -2.6
v 4.3 8.3 -2.6
v 4.3 8.4 -2.6
v 4.4 8.2 -2.6
v 4.4 8.5 -2.6
v 4.8 8.3 -2.6
v 4.8 8.4 -2.6
v 4.9 8.3 -2.6
v 4.9 8.4 -2.6
v 5 8.3 -2.6
v 5 8.4 -2.6
v 3.8 8.3 -2.7
v 3.8 8.4 -2.7
v 3.9 8.3 -2.7
v 3.9 8.4 -2.7
v 4.2 8.3 -2.7
v 4.2 8.4 -2.7
v 4.3 8.3 -2.7
v 4.3 8.4 -2.7
v 3.7 8.3 -2.9
v 3.7 8.4 -2.9
v 3.8 8.3 -2.9
v 3.8 8.4 -2.9
v 3.5 8.3 -3
v 3.5 8.4 -3
v 3.7 8.3 -3
v 3.7 8.4 -3
v 4 8.3 -3.1
v 4 8.4 -3.1
v 4.3 8.3 -3.1
v 4.3 8.4 -3.1
v 3.8 8.2 -2.3
v 4.3 8.2 -2.3
v 4.5 8.2 -2.3
v 4.8 8.2 -2.3
v 2.1 8.2 -2.4
v 2.3 8.2 -2.4
v 3.7 8.2 -2.4
v 3.8 8.2 -2.4
v 4.3 8.2 -2.4
v 4.4 8.2 -2.4
v 4.5 8.2 -2.4
v 4.8 8.2 -2.4
v 2.1 8.2 -2.5
v 2.3 8.2 -2.5
v 3.7 8.2 -2.6
v 4.4 8.2 -2.6
v 3.9 8.3 -2.2
v 4.3 8.3 -2.2
v 4.8 8.3 -2.2
v 4.9 8.3 -2.2
v 5 8.3 -2.2
v 2.1 8.3 -2.3
v 2.3 8.3 -2.3
v 2.5 8.3 -2.3
v 2.6 8.3 -2.3
v 3 8.3 -2.3
v 3.6 8.3 -2.3
v 3.8 8.3 -2.3
v 3.9 8.3 -2.3
v 4.3 8.3 -2.3
v 4.4 8.3 -2.3
v 4.8 8.3 -2.3
v 2.1 8.3 -2.4
v 2.3 8.3 -2.4
v 2.5 8.3 -2.4
v 2.6 8.3 -2.4
v 3 8.3 -2.4
v 3.7 8.3 -2.4
v 3.8 8.3 -2.4
v 4.3 8.3 -2.4
v 4.4 8.3 -2.4
v 4.5 8.3 -2.4
v 4.6 8.3 -2.4
v 4.8 8.3 -2.4
v 2.1 8.3 -2.5
v 2.3 8.3 -2.5
v 3 8.3 -2.5
v 3.6 8.3 -2.5
v 3.7 8.3 -2.5
v 4.4 8.3 -2.5
v 4.6 8.3 -2.5
v 4.8 8.3 -2.5
v 2.1 8.3 -2.6
v 2.3 8.3 -2.6
v 3 8.3 -2.6
v 3.6 8.3 -2.6
v 3.7 8.3 -2.6
v 3.9 8.3 -2.6
v 4.1 8.3 -2.6
v 4.3 8.3 -2.6
v 4.8 8.3 -2.6
v 4.9 8.3 -2.6
v 5 8.3 -2.6
v 3.6 8.3 -2.7
v 3.7 8.3 -2.7
v 3.8 8.3 -2.7
v 3.9 8.3 -2.7
v 4.2 8.3 -2.7
v 4.3 8.3 -2.7
v 3.5 8.3 -2.8
v 3.6 8.3 -2.8
v 3.7 8.3 -2.9
v 3.8 8.3 -2.9
v 3.5 8.3 -3
v 3.7 8.3 -3
v 4 8.3 -3
v 4.1 8.3 -3
v 4.2 8.3 -3
v 4.3 8.3 -3
v 4 8.3 -3.1
v 4.3 8.3 -3.1
v 2.1 8.4 -2.4
v 2.2 8.4 -2.4
v 2.1 8.4 -2.5
v 2.2 8.4 -2.5
v 2.1 8.3 -2.4
v 2.2 8.3 -2.4
v 2.1 8.3 -2.5
v 2.2 8.3 -2.5
v 3.9 8.4 -2.2
v 4.3 8.4 -2.2
v 4.8 8.4 -2.2
v 4.9 8.4 -2.2
v 5 8.4 -2.2
v 2.1 8.4 -2.3
v 2.3 8.4 -2.3
v 2.5 8.4 -2.3
v 2.6 8.4 -2.3
v 3 8.4 -2.3
v 3.6 8.4 -2.3
v 3.8 8.4 -2.3
v 3.9 8.4 -2.3
v 4.3 8.4 -2.3
v 4.4 8.4 -2.3
v 4.8 8.4 -2.3
v 2.1 8.4 -2.4
v 2.3 8.4 -2.4
v 2.5 8.4 -2.4
v 2.6 8.4 -2.4
v 3 8.4 -2.4
v 3.4 8.4 -2.4
v 3.7 8.4 -2.4
v 3.8 8.4 -2.4
v 4.3 8.4 -2.4
v 4.4 8.4 -2.4
v 4.5 8.4 -2.4
v 4.6 8.4 -2.4
v 4.8 8.4 -2.4
v 2.1 8.4 -2.5
v 2.3 8.4 -2.5
v 3 8.4 -2.5
v 3.4 8.4 -2.5
v 3.6 8.4 -2.5
v 3.7 8.4 -2.5
v 4.4 8.4 -2.5
v 4.6 8.4 -2.5
v 4.8 8.4 -2.5
v 2.1 8.4 -2.6
v 2.3 8.4 -2.6
v 3 8.4 -2.6
v 3.6 8.4 -2.6
v 3.7 8.4 -2.6
v 3.9 8.4 -2.6
v 4.1 8.4 -2.6
v 4.3 8.4 -2.6
v 4.8 8.4 -2.6
v 4.9 8.4 -2.6
v 5 8.4 -2.6
v 3.6 8.4 -2.7
v 3.7 8.4 -2.7
v 3.8 8.4 -2.7
v 3.9 8.4 -2.7
v 4.2 8.4 -2.7
v 4.3 8.4 -2.7
v 3.5 8.4 -2.8
v 3.6 8.4 -2.8
v 3.7 8.4 -2.9
v 3.8 8.4 -2.9
v 3.5 8.4 -3
v 3.7 8.4 -3
v 4 8.4 -3
v 4.1 8.4 -3
v 4.2 8.4 -3
v 4.3 8.4 -3
v 4 8.4 -3.1
v 4.3 8.4 -3.1
v 3.8 8.5 -2.3
v 4.3 8.5 -2.3
v 4.5 8.5 -2.3
v 4.8 8.5 -2.3
v 2.1 8.5 -2.4
v 2.3 8.5 -2.4
v 3 8.5 -2.4
v 3.4 8.5 -2.4
v 3.7 8.5 -2.4
v 3.8 8.5 -2.4
v 4.3 8.5 -2.4
v 4.4 8.5 -2.4
v 4.5 8.5 -2.4
v 4.8 8.5 -2.4
v 2.1 8.5 -2.5
v 2.3 8.5 -2.5
v 3 8.5 -2.5
v 3.4 8.5 -2.5
v 3.7 8.5 -2.6
v 4.4 8.5 -2.6

# faces
f 4/2/1 2/2/1 1/2/1
f 5/2/1 2/2/1 4/2/1
f 7/2/1 4/2/1 3/2/1
f 8/2/1 4/2/1 7/2/1
f 9/2/1 6/2/1 5/2/1
f 10/2/1 6/2/1 9/2/1
f 11/2/1 9/2/1 8/2/1
f 12/2/1 9/2/1 11/2/1
f 15/3/1 14/3/1 13/3/1
f 16/3/1 14/3/1 15/3/1
f 19/3/1 18/3/1 17/3/1
f 20/3/1 18/3/1 19/3/1
f 25/1/1 22/1/1 21/1/1
f 26/1/1 22/1/1 25/1/1
f 27/1/1 24/1/1 23/1/1
f 28/1/1 24/1/1 27/1/1
f 29/1/1 27/1/1 26/1/1
f 30/1/1 27/1/1 29/1/1
f 33/2/1 32/2/1 31/2/1
f 34/2/1 32/2/1 33/2/1
f 37/2/1 36/2/1 35/2/1
f 38/2/1 36/2/1 37/2/1
f 41/3/1 40/3/1 39/3/1
f 42/3/1 40/3/1 41/3/1
f 43/3/1 40/3/1 42/3/1
f 46/3/1 43/3/1 42/3/1
f 47/2/1 44/2/1 43/2/1
f 47/3/1 43/3/1 46/3/1
f 48/2/1 44/2/1 47/2/1
f 49/3/1 46/3/1 45/3/1
f 49/3/1 47/3/1 46/3/1
f 50/3/1 47/3/1 49/3/1
f 53/3/1 52/3/1 51/3/1
f 54/3/1 52/3/1 53/3/1
f 57/3/1 56/3/1 55/3/1
f 58/3/1 56/3/1 57/3/1
f 61/2/1 60/2/1 59/2/1
f 62/2/1 60/2/1 61/2/1
f 65/3/1 64/3/1 63/3/1
f 66/3/1 64/3/1 65/3/1
f 69/3/1 68/3/1 67/3/1
f 70/3/1 68/3/1 69/3/1
f 73/1/1 72/1/1 71/1/1
f 74/1/1 73/1/1 71/1/1
f 75/1/1 74/1/1 71/1/1
f 76/1/1 74/1/1 75/1/1
f 81/1/1 78/1/1 77/1/1
f 82/1/1 78/1/1 81/1/1
f 83/1/1 80/1/1 79/1/1
f 84/1/1 80/1/1 83/1/1
f 85/2/2 86/2/2 88/2/2
f 88/2/2 86/2/2 89/2/2
f 87/2/2 88/2/2 91/2/2
f 91/2/2 88/2/2 92/2/2
f 89/2/2 90/2/2 93/2/2
f 93/2/2 90/2/2 94/2/2
f 92/2/2 93/2/2 95/2/2
f 95/2/2 93/2/2 96/2/2
f 97/3/2 98/3/2 99/3/2
f 99/3/2 98/3/2 100/3/2
f 101/1/2 102/1/2 103/1/2
f 103/1/2 102/1/2 104/1/2
f 105/1/2 106/1/2 107/1/2
f 107/1/2 106/1/2 108/1/2
f 109/2/2 110/2/2 111/2/2
f 111/2/2 110/2/2 112/2/2
f 113/2/2 114/2/2 115/2/2
f 115/2/2 114/2/2 116/2/2
f 117/2/2 118/2/2 119/2/2
f 119/2/2 118/2/2 120/2/2
f 121/3/2 122/3/2 123/3/2
f 123/3/2 122/3/2 124/3/2
f 125/3/2 126/3/2 128/3/2
f 128/3/2 126/3/2 129/3/2
f 127/2/2 128/2/2 134/2/2
f 134/2/2 128/2/2 135/2/2
f 130/3/2 131/3/2 137/3/2
f 137/3/2 131/3/2 138/3/2
f 132/3/2 133/3/2 139/3/2
f 139/3/2 133/3/2 140/3/2
f 135/3/2 136/3/2 141/3/2
f 141/3/2 136/3/2 142/3/2
f 143/3/2 144/3/2 146/3/2
f 146/3/2 144/3/2 147/3/2
f 145/3/2 146/3/2 148/3/2
f 148/3/2 146/3/2 149/3/2
f 147/3/2 144/3/2 150/3/2
f 149/3/2 150/3/2 151/3/2
f 150/3/2 144/3/2 152/3/2
f 151/3/2 150/3/2 152/3/2
f 153/1/2 154/1/2 155/1/2
f 155/1/2 154/1/2 156/1/2
f 157/1/2 158/1/2 159/1/2
f 159/1/2 158/1/2 160/1/2
f 161/3/2 162/3/2 163/3/2
f 163/3/2 162/3/2 164/3/2
f 167/2/3 166/2/3 165/2/3
f 168/2/3 166/2/3 167/2/3
f 171/1/3 170/1/3 169/1/3
f 172/1/3 170/1/3 171/1/3
f 173/3/3 172/3/3 171/3/3
f 174/3/3 172/3/3 173/3/3
f 177/2/3 176/2/3 175/2/3
f 178/2/3 176/2/3 177/2/3
f 181/3/3 180/3/3 179/3/3
f 182/3/3 180/3/3 181/3/3
f 185/1/3 184/1/3 183/1/3
f 186/1/3 184/1/3 185/1/3
f 188/3/3 186/3/3 185/3/3
f 189/3/3 186/3/3 188/3/3
f 191/3/3 189/3/3 188/3/3
f 191/3/3 190/3/3 189/3/3
f 191/3/3 188/3/3 187/3/3
f 192/3/3 190/3/3 191/3/3
f 193/3/3 191/3/3 187/3/3
f 194/3/3 191/3/3 193/3/3
f 195/3/3 190/3/3 192/3/3
f 196/3/3 190/3/3 195/3/3
f 197/3/3 195/3/3 194/3/3
f 198/3/3 195/3/3 197/3/3
f 201/1/3 200/1/3 199/1/3
f 202/1/3 200/1/3 201/1/3
f 203/1/3 200/1/3 202/1/3
f 204/1/3 200/1/3 203/1/3
f 209/2/3 206/2/3 205/2/3
f 210/2/3 206/2/3 209/2/3
f 211/2/3 208/2/3 207/2/3
f 212/2/3 208/2/3 211/2/3
f 213/3/3 211/3/3 210/3/3
f 214/3/3 211/3/3 213/3/3
f 217/3/3 216/3/3 215/3/3
f 218/3/3 216/3/3 217/3/3
f 220/1/3 219/1/3 218/1/3
f 221/1/3 219/1/3 220/1/3
f 226/3/3 223/3/3 222/3/3
f 227/3/3 223/3/3 226/3/3
f 228/3/3 225/3/3 224/3/3
f 229/3/3 225/3/3 228/3/3
f 234/3/3 231/3/3 230/3/3
f 235/3/3 231/3/3 234/3/3
f 236/3/3 233/3/3 232/3/3
f 237/3/3 233/3/3 236/3/3
f 238/3/3 236/3/3 235/3/3
f 239/3/3 236/3/3 238/3/3
f 242/2/3 241/2/3 240/2/3
f 243/2/3 241/2/3 242/2/3
f 246/2/3 245/2/3 244/2/3
f 247/2/3 245/2/3 246/2/3
f 250/2/3 249/2/3 248/2/3
f 251/2/3 249/2/3 250/2/3
f 254/3/3 253/3/3 252/3/3
f 255/3/3 253/3/3 254/3/3
f 258/3/3 257/3/3 256/3/3
f 259/3/3 257/3/3 258/3/3
f 260/2/4 261/2/4 262/2/4
f 262/2/4 261/2/4 263/2/4
f 264/1/4 265/1/4 268/1/4
f 266/1/4 267/1/4 269/1/4
f 264/1/4 268/1/4 270/1/4
f 270/1/4 268/1/4 271/1/4
f 269/1/4 267/1/4 272/1/4
f 272/1/4 267/1/4 273/1/4
f 274/2/4 275/2/4 278/2/4
f 278/2/4 275/2/4 279/2/4
f 276/2/4 277/2/4 280/2/4
f 280/2/4 277/2/4 281/2/4
f 279/3/4 280/3/4 282/3/4
f 282/3/4 280/3/4 283/3/4
f 283/1/4 284/1/4 285/1/4
f 285/1/4 284/1/4 286/1/4
f 287/3/4 288/3/4 289/3/4
f 289/3/4 288/3/4 290/3/4
f 291/3/4 292/3/4 293/3/4
f 293/3/4 292/3/4 294/3/4
f 293/1/4 294/1/4 295/1/4
f 295/1/4 294/1/4 296/1/4
f 297/2/4 298/2/4 299/2/4
f 299/2/4 298/2/4 300/2/4
f 301/1/4 302/1/4 303/1/4
f 303/1/4 302/1/4 304/1/4
f 305/3/4 306/3/4 309/3/4
f 307/3/4 308/3/4 310/3/4
f 305/3/4 309/3/4 311/3/4
f 309/3/4 310/3/4 311/3/4
f 310/3/4 308/3/4 312/3/4
f 311/3/4 310/3/4 312/3/4
f 305/3/4 311/3/4 313/3/4
f 312/3/4 308/3/4 314/3/4
f 305/3/4 313/3/4 315/3/4
f 313/3/4 314/3/4 315/3/4
f 314/3/4 308/3/4 316/3/4
f 315/3/4 314/3/4 316/3/4
f 317/1/4 318/1/4 319/1/4
f 319/1/4 318/1/4 320/1/4
f 319/3/4 320/3/4 321/3/4
f 321/3/4 320/3/4 322/3/4
f 323/2/4 324/2/4 325/2/4
f 325/2/4 324/2/4 326/2/4
f 327/3/4 328/3/4 329/3/4
f 329/3/4 328/3/4 330/3/4
f 331/2/4 332/2/4 333/2/4
f 333/2/4 332/2/4 334/2/4
f 335/2/4 336/2/4 337/2/4
f 337/2/4 336/2/4 338/2/4
f 339/3/4 340/3/4 341/3/4
f 341/3/4 340/3/4 342/3/4
f 350/3/5 344/3/5 343/3/5
f 351/3/5 344/3/5 350/3/5
f 353/1/5 346/1/5 345/1/5
f 354/1/5 346/1/5 353/1/5
f 355/2/5 348/2/5 347/2/5
f 356/2/5 348/2/5 355/2/5
f 357/3/5 352/3/5 351/3/5
f 357/3/5 350/3/5 349/3/5
f 357/3/5 351/3/5 350/3/5
f 358/3/5 352/3/5 357/3/5
f 371/2/5 360/2/5 359/2/5
f 372/2/5 360/2/5 371/2/5
f 374/1/5 362/1/5 361/1/5
f 375/2/5 365/2/5 364/2/5
f 376/2/5 365/2/5 375/2/5
f 377/3/5 367/3/5 366/3/5
f 378/3/5 367/3/5 377/3/5
f 379/1/5 369/1/5 368/1/5
f 380/3/5 370/3/5 369/3/5
f 381/3/5 370/3/5 380/3/5
f 382/3/5 373/3/5 372/3/5
f 383/3/5 373/3/5 382/3/5
f 386/1/5 362/1/5 374/1/5
f 388/3/5 379/3/5 378/3/5
f 388/3/5 378/3/5 377/3/5
f 388/3/5 377/3/5 376/3/5
f 389/1/5 369/1/5 379/1/5
f 389/3/5 379/3/5 388/3/5
f 390/3/5 380/3/5 369/3/5
f 390/1/5 369/1/5 389/1/5
f 391/3/5 380/3/5 390/3/5
f 392/3/5 384/3/5 383/3/5
f 392/3/5 385/3/5 384/3/5
f 393/1/5 386/1/5 385/1/5
f 393/3/5 385/3/5 392/3/5
f 394/1/5 362/1/5 386/1/5
f 394/1/5 386/1/5 393/1/5
f 395/2/5 388/2/5 387/2/5
f 396/2/5 388/2/5 395/2/5
f 397/1/5 390/1/5 389/1/5
f 398/1/5 390/1/5 397/1/5
f 403/1/5 362/1/5 394/1/5
f 404/3/5 363/3/5 362/3/5
f 404/1/5 362/1/5 403/1/5
f 405/3/5 363/3/5 404/3/5
f 407/2/5 400/2/5 399/2/5
f 408/2/5 400/2/5 407/2/5
f 409/2/5 400/2/5 408/2/5
f 410/3/5 402/3/5 401/3/5
f 411/3/5 402/3/5 410/3/5
f 413/2/5 407/2/5 406/2/5
f 413/2/5 408/2/5 407/2/5
f 414/2/5 408/2/5 413/2/5
f 414/2/5 413/2/5 412/2/5
f 415/2/5 408/2/5 414/2/5
f 416/2/5 414/2/5 412/2/5
f 417/2/5 414/2/5 416/2/5
f 419/3/5 410/3/5 401/3/5
f 420/3/5 410/3/5 419/3/5
f 422/3/5 421/3/5 420/3/5
f 422/3/5 420/3/5 419/3/5
f 422/3/5 419/3/5 418/3/5
f 423/3/5 421/3/5 422/3/5
f 426/2/5 425/2/5 424/2/5
f 427/2/5 425/2/5 426/2/5
f 428/2/6 429/2/6 430/2/6
f 430/2/6 429/2/6 431/2/6
f 432/2/6 433/2/6 444/2/6
f 444/2/6 433/2/6 445/2/6
f 434/1/6 435/1/6 447/1/6
f 437/2/6 438/2/6 448/2/6
f 448/2/6 438/2/6 449/2/6
f 439/3/6 440/3/6 450/3/6
f 450/3/6 440/3/6 451/3/6
f 441/1/6 442/1/6 452/1/6
f 452/1/6 442/1/6 453/1/6
f 442/3/6 443/3/6 454/3/6
f 454/3/6 443/3/6 455/3/6
f 445/3/6 446/3/6 456/3/6
f 456/3/6 446/3/6 457/3/6
f 447/1/6 435/1/6 460/1/6
f 450/3/6 451/3/6 462/3/6
f 449/3/6 450/3/6 462/3/6
f 451/3/6 452/3/6 462/3/6
f 462/3/6 452/3/6 463/3/6
f 453/1/6 442/1/6 464/1/6
f 442/3/6 454/3/6 465/3/6
f 464/1/6 442/1/6 465/1/6
f 465/3/6 454/3/6 466/3/6
f 458/3/6 459/3/6 467/3/6
f 457/3/6 458/3/6 467/3/6
f 459/1/6 460/1/6 468/1/6
f 467/3/6 459/3/6 468/3/6
f 460/1/6 435/1/6 469/1/6
f 468/1/6 460/1/6 469/1/6
f 461/2/6 462/2/6 470/2/6
f 470/2/6 462/2/6 471/2/6
f 464/1/6 465/1/6 472/1/6
f 463/1/6 464/1/6 472/1/6
f 472/1/6 465/1/6 473/1/6
f 469/1/6 435/1/6 478/1/6
f 435/3/6 436/3/6 479/3/6
f 478/1/6 435/1/6 479/1/6
f 479/3/6 436/3/6 480/3/6
f 474/2/6 475/2/6 482/2/6
f 482/2/6 475/2/6 483/2/6
f 483/2/6 475/2/6 484/2/6
f 476/3/6 477/3/6 485/3/6
f 485/3/6 477/3/6 486/3/6
f 481/2/6 482/2/6 488/2/6
f 482/2/6 483/2/6 488/2/6
f 488/2/6 483/2/6 489/2/6
f 487/2/6 488/2/6 489/2/6
f 489/2/6 483/2/6 490/2/6
f 487/2/6 489/2/6 491/2/6
f 491/2/6 489/2/6 492/2/6
f 476/3/6 485/3/6 494/3/6
f 494/3/6 485/3/6 495/3/6
f 495/3/6 496/3/6 497/3/6
f 494/3/6 495/3/6 497/3/6
f 493/3/6 494/3/6 497/3/6
f 497/3/6 496/3/6 498/3/6
f 499/3/6 500/3/6 508/3/6
f 508/3/6 500/3/6 509/3/6
f 501/1/6 502/1/6 511/1/6
f 511/1/6 502/1/6 512/1/6
f 503/2/6 504/2/6 513/2/6
f 513/2/6 504/2/6 514/2/6
f 505/1/6 506/1/6 515/1/6
f 515/1/6 506/1/6 516/1/6
f 509/3/6 510/3/6 517/3/6
f 507/3/6 508/3/6 517/3/6
f 508/3/6 509/3/6 517/3/6
f 517/3/6 510/3/6 518/3/6
